<?xml version="1.0" encoding="UTF-8" standalone="no"?>
<!DOCTYPE svg PUBLIC "-//W3C//DTD SVG 1.1//EN"
 "http://www.w3.org/Graphics/SVG/1.1/DTD/svg11.dtd">
<!-- Generated by graphviz version 2.47.0 (20210316.0004)
 -->
<!-- Title: G Pages: 1 -->
<svg width="939pt" height="656pt"
 viewBox="0.00 0.00 939.00 656.00" xmlns="http://www.w3.org/2000/svg" xmlns:xlink="http://www.w3.org/1999/xlink">
<g id="graph0" class="graph" transform="scale(1 1) rotate(0) translate(4 652)">
<title>G</title>
<polygon fill="white" stroke="transparent" points="-4,4 -4,-652 935,-652 935,4 -4,4"/>
<!-- github.com/nikolaydubina/jsonl&#45;graph/graph -->
<g id="node1" class="node">
<title>github.com/nikolaydubina/jsonl&#45;graph/graph</title>
<polygon fill="none" stroke="black" points="543,-556.5 543,-592.5 803,-592.5 803,-556.5 543,-556.5"/>
<text text-anchor="middle" x="673" y="-570.8" font-family="Times,serif" font-size="14.00">github.com/nikolaydubina/jsonl&#45;graph/graph</text>
</g>
<!-- bufio -->
<g id="node2" class="node">
<title>bufio</title>
<polygon fill="none" stroke="black" points="858,-556.5 858,-592.5 912,-592.5 912,-556.5 858,-556.5"/>
<text text-anchor="middle" x="885" y="-570.8" font-family="Times,serif" font-size="14.00">bufio</text>
</g>
<!-- github.com/nikolaydubina/jsonl&#45;graph/graph&#45;&gt;bufio -->
<g id="edge1" class="edge">
<title>github.com/nikolaydubina/jsonl&#45;graph/graph&#45;&gt;bufio</title>
<path fill="none" stroke="black" d="M803.11,-574.5C819.25,-574.5 834.58,-574.5 847.47,-574.5"/>
<polygon fill="black" stroke="black" points="847.69,-578 857.69,-574.5 847.69,-571 847.69,-578"/>
</g>
<!-- bytes -->
<g id="node3" class="node">
<title>bytes</title>
<polygon fill="none" stroke="black" points="858,-501.5 858,-537.5 912,-537.5 912,-501.5 858,-501.5"/>
<text text-anchor="middle" x="885" y="-515.8" font-family="Times,serif" font-size="14.00">bytes</text>
</g>
<!-- github.com/nikolaydubina/jsonl&#45;graph/graph&#45;&gt;bytes -->
<g id="edge2" class="edge">
<title>github.com/nikolaydubina/jsonl&#45;graph/graph&#45;&gt;bytes</title>
<path fill="none" stroke="black" d="M767.35,-556.43C779.4,-553.66 791.53,-550.67 803,-547.5 818,-543.35 834.27,-537.92 848.26,-532.95"/>
<polygon fill="black" stroke="black" points="849.78,-536.12 858,-529.43 847.4,-529.53 849.78,-536.12"/>
</g>
<!-- encoding/json -->
<g id="node4" class="node">
<title>encoding/json</title>
<polygon fill="none" stroke="black" points="839,-349.5 839,-385.5 931,-385.5 931,-349.5 839,-349.5"/>
<text text-anchor="middle" x="885" y="-363.8" font-family="Times,serif" font-size="14.00">encoding/json</text>
</g>
<!-- github.com/nikolaydubina/jsonl&#45;graph/graph&#45;&gt;encoding/json -->
<g id="edge3" class="edge">
<title>github.com/nikolaydubina/jsonl&#45;graph/graph&#45;&gt;encoding/json</title>
<path fill="none" stroke="black" d="M789.57,-556.48C794.3,-553.85 798.81,-550.87 803,-547.5 828.02,-527.39 859.79,-440.32 875.04,-395.06"/>
<polygon fill="black" stroke="black" points="878.37,-396.15 878.21,-385.56 871.73,-393.94 878.37,-396.15"/>
</g>
<!-- errors -->
<g id="node5" class="node">
<title>errors</title>
<polygon fill="none" stroke="black" points="858,-245.5 858,-281.5 912,-281.5 912,-245.5 858,-245.5"/>
<text text-anchor="middle" x="885" y="-259.8" font-family="Times,serif" font-size="14.00">errors</text>
</g>
<!-- github.com/nikolaydubina/jsonl&#45;graph/graph&#45;&gt;errors -->
<g id="edge4" class="edge">
<title>github.com/nikolaydubina/jsonl&#45;graph/graph&#45;&gt;errors</title>
<path fill="none" stroke="black" d="M792.65,-556.36C796.35,-553.73 799.82,-550.79 803,-547.5 867.89,-480.35 806.93,-428.2 839,-340.5 845.52,-322.68 856.11,-304.27 865.38,-289.92"/>
<polygon fill="black" stroke="black" points="868.32,-291.83 870.93,-281.56 862.49,-287.95 868.32,-291.83"/>
</g>
<!-- fmt -->
<g id="node6" class="node">
<title>fmt</title>
<polygon fill="none" stroke="black" points="858,-171.5 858,-207.5 912,-207.5 912,-171.5 858,-171.5"/>
<text text-anchor="middle" x="885" y="-185.8" font-family="Times,serif" font-size="14.00">fmt</text>
</g>
<!-- github.com/nikolaydubina/jsonl&#45;graph/graph&#45;&gt;fmt -->
<g id="edge5" class="edge">
<title>github.com/nikolaydubina/jsonl&#45;graph/graph&#45;&gt;fmt</title>
<path fill="none" stroke="black" d="M793.17,-556.38C796.69,-553.75 799.99,-550.8 803,-547.5 850.04,-495.94 808.98,-298.51 839,-235.5 842.51,-228.12 847.69,-221.21 853.3,-215.09"/>
<polygon fill="black" stroke="black" points="855.97,-217.36 860.53,-207.8 851,-212.43 855.97,-217.36"/>
</g>
<!-- io -->
<g id="node7" class="node">
<title>io</title>
<polygon fill="none" stroke="black" points="858,-611.5 858,-647.5 912,-647.5 912,-611.5 858,-611.5"/>
<text text-anchor="middle" x="885" y="-625.8" font-family="Times,serif" font-size="14.00">io</text>
</g>
<!-- github.com/nikolaydubina/jsonl&#45;graph/graph&#45;&gt;io -->
<g id="edge6" class="edge">
<title>github.com/nikolaydubina/jsonl&#45;graph/graph&#45;&gt;io</title>
<path fill="none" stroke="black" d="M745.36,-592.55C764.12,-597.36 784.34,-602.58 803,-607.5 817.74,-611.39 833.96,-615.77 847.99,-619.6"/>
<polygon fill="black" stroke="black" points="847.19,-623.01 857.76,-622.27 849.04,-616.26 847.19,-623.01"/>
</g>
<!-- github.com/nikolaydubina/jsonl&#45;graph/dot -->
<g id="node8" class="node">
<title>github.com/nikolaydubina/jsonl&#45;graph/dot</title>
<polygon fill="none" stroke="black" points="261,-336.5 261,-372.5 507,-372.5 507,-336.5 261,-336.5"/>
<text text-anchor="middle" x="384" y="-350.8" font-family="Times,serif" font-size="14.00">github.com/nikolaydubina/jsonl&#45;graph/dot</text>
</g>
<!-- github.com/nikolaydubina/jsonl&#45;graph/dot&#45;&gt;github.com/nikolaydubina/jsonl&#45;graph/graph -->
<g id="edge11" class="edge">
<title>github.com/nikolaydubina/jsonl&#45;graph/dot&#45;&gt;github.com/nikolaydubina/jsonl&#45;graph/graph</title>
<path fill="none" stroke="black" d="M407.5,-372.56C433.84,-394.55 477.59,-433.81 507,-474.5 528.19,-503.82 514.41,-525.34 543,-547.5 544.63,-548.76 546.3,-549.97 548.01,-551.12"/>
<polygon fill="black" stroke="black" points="546.51,-554.3 556.88,-556.46 550.12,-548.3 546.51,-554.3"/>
</g>
<!-- github.com/nikolaydubina/jsonl&#45;graph/dot&#45;&gt;encoding/json -->
<g id="edge8" class="edge">
<title>github.com/nikolaydubina/jsonl&#45;graph/dot&#45;&gt;encoding/json</title>
<path fill="none" stroke="black" d="M491.68,-336.38C497.05,-333.79 502.19,-330.85 507,-327.5 531.28,-310.58 517.03,-285.68 543,-271.5 644.42,-216.13 698.2,-222.81 803,-271.5 833.24,-285.55 856.26,-317.07 869.89,-340.18"/>
<polygon fill="black" stroke="black" points="867.01,-342.2 874.98,-349.18 873.11,-338.76 867.01,-342.2"/>
</g>
<!-- github.com/nikolaydubina/jsonl&#45;graph/dot&#45;&gt;errors -->
<g id="edge9" class="edge">
<title>github.com/nikolaydubina/jsonl&#45;graph/dot&#45;&gt;errors</title>
<path fill="none" stroke="black" d="M494.62,-336.46C499.01,-333.83 503.17,-330.86 507,-327.5 542.2,-296.63 504.65,-255.36 543,-228.5 636.62,-162.93 781.69,-215.44 848.32,-245.77"/>
<polygon fill="black" stroke="black" points="847.03,-249.02 857.57,-250.06 849.98,-242.67 847.03,-249.02"/>
</g>
<!-- github.com/nikolaydubina/jsonl&#45;graph/dot&#45;&gt;fmt -->
<g id="edge10" class="edge">
<title>github.com/nikolaydubina/jsonl&#45;graph/dot&#45;&gt;fmt</title>
<path fill="none" stroke="black" d="M496.38,-336.46C500.18,-333.82 503.75,-330.84 507,-327.5 566.29,-266.49 477.43,-193.7 543,-139.5 587.53,-102.69 747.42,-123.73 803,-139.5 821.17,-144.66 839.26,-155.17 853.72,-165.24"/>
<polygon fill="black" stroke="black" points="852.07,-168.36 862.22,-171.39 856.17,-162.69 852.07,-168.36"/>
</g>
<!-- github.com/nikolaydubina/jsonl&#45;graph/dot&#45;&gt;io -->
<g id="edge13" class="edge">
<title>github.com/nikolaydubina/jsonl&#45;graph/dot&#45;&gt;io</title>
<path fill="none" stroke="black" d="M390.3,-372.64C405.25,-420.13 452.65,-548.18 543,-602.5 593.49,-632.86 770.56,-632.38 847.67,-630.62"/>
<polygon fill="black" stroke="black" points="847.95,-634.12 857.86,-630.37 847.78,-627.12 847.95,-634.12"/>
</g>
<!-- embed -->
<g id="node9" class="node">
<title>embed</title>
<polygon fill="none" stroke="black" points="646,-55.5 646,-91.5 700,-91.5 700,-55.5 646,-55.5"/>
<text text-anchor="middle" x="673" y="-69.8" font-family="Times,serif" font-size="14.00">embed</text>
</g>
<!-- github.com/nikolaydubina/jsonl&#45;graph/dot&#45;&gt;embed -->
<g id="edge7" class="edge">
<title>github.com/nikolaydubina/jsonl&#45;graph/dot&#45;&gt;embed</title>
<path fill="none" stroke="black" d="M496.76,-336.38C500.43,-333.76 503.87,-330.81 507,-327.5 575.36,-255.18 475.83,-179.93 543,-106.5 566.28,-81.05 606.23,-74.06 635.52,-72.65"/>
<polygon fill="black" stroke="black" points="635.88,-76.14 645.78,-72.36 635.68,-69.15 635.88,-76.14"/>
</g>
<!-- image/color -->
<g id="node10" class="node">
<title>image/color</title>
<polygon fill="none" stroke="black" points="632,-0.5 632,-36.5 714,-36.5 714,-0.5 632,-0.5"/>
<text text-anchor="middle" x="673" y="-14.8" font-family="Times,serif" font-size="14.00">image/color</text>
</g>
<!-- github.com/nikolaydubina/jsonl&#45;graph/dot&#45;&gt;image/color -->
<g id="edge12" class="edge">
<title>github.com/nikolaydubina/jsonl&#45;graph/dot&#45;&gt;image/color</title>
<path fill="none" stroke="black" d="M497.17,-336.33C500.7,-333.72 504,-330.78 507,-327.5 592.2,-234.19 457.27,-138.32 543,-45.5 562.69,-24.19 594.52,-17.36 621.64,-15.9"/>
<polygon fill="black" stroke="black" points="621.88,-19.4 631.76,-15.59 621.66,-12.4 621.88,-19.4"/>
</g>
<!-- io/ioutil -->
<g id="node11" class="node">
<title>io/ioutil</title>
<polygon fill="none" stroke="black" points="643.5,-501.5 643.5,-537.5 702.5,-537.5 702.5,-501.5 643.5,-501.5"/>
<text text-anchor="middle" x="673" y="-515.8" font-family="Times,serif" font-size="14.00">io/ioutil</text>
</g>
<!-- github.com/nikolaydubina/jsonl&#45;graph/dot&#45;&gt;io/ioutil -->
<g id="edge14" class="edge">
<title>github.com/nikolaydubina/jsonl&#45;graph/dot&#45;&gt;io/ioutil</title>
<path fill="none" stroke="black" d="M399.96,-372.55C425.83,-402.5 482.04,-462.13 543,-492.5 571.39,-506.64 606.85,-513.38 633.4,-516.59"/>
<polygon fill="black" stroke="black" points="633.15,-520.09 643.47,-517.7 633.91,-513.13 633.15,-520.09"/>
</g>
<!-- net/http -->
<g id="node12" class="node">
<title>net/http</title>
<polygon fill="none" stroke="black" points="644,-446.5 644,-482.5 702,-482.5 702,-446.5 644,-446.5"/>
<text text-anchor="middle" x="673" y="-460.8" font-family="Times,serif" font-size="14.00">net/http</text>
</g>
<!-- github.com/nikolaydubina/jsonl&#45;graph/dot&#45;&gt;net/http -->
<g id="edge15" class="edge">
<title>github.com/nikolaydubina/jsonl&#45;graph/dot&#45;&gt;net/http</title>
<path fill="none" stroke="black" d="M413.59,-372.64C444.41,-391.44 495.47,-420.42 543,-437.5 572.75,-448.19 607.96,-455.21 634.07,-459.4"/>
<polygon fill="black" stroke="black" points="633.54,-462.86 643.96,-460.92 634.61,-455.94 633.54,-462.86"/>
</g>
<!-- sort -->
<g id="node13" class="node">
<title>sort</title>
<polygon fill="none" stroke="black" points="646,-391.5 646,-427.5 700,-427.5 700,-391.5 646,-391.5"/>
<text text-anchor="middle" x="673" y="-405.8" font-family="Times,serif" font-size="14.00">sort</text>
</g>
<!-- github.com/nikolaydubina/jsonl&#45;graph/dot&#45;&gt;sort -->
<g id="edge16" class="edge">
<title>github.com/nikolaydubina/jsonl&#45;graph/dot&#45;&gt;sort</title>
<path fill="none" stroke="black" d="M478.97,-372.51C532.55,-382.78 596.62,-395.05 635.8,-402.56"/>
<polygon fill="black" stroke="black" points="635.21,-406.01 645.69,-404.46 636.52,-399.14 635.21,-406.01"/>
</g>
<!-- strconv -->
<g id="node14" class="node">
<title>strconv</title>
<polygon fill="none" stroke="black" points="645,-336.5 645,-372.5 701,-372.5 701,-336.5 645,-336.5"/>
<text text-anchor="middle" x="673" y="-350.8" font-family="Times,serif" font-size="14.00">strconv</text>
</g>
<!-- github.com/nikolaydubina/jsonl&#45;graph/dot&#45;&gt;strconv -->
<g id="edge17" class="edge">
<title>github.com/nikolaydubina/jsonl&#45;graph/dot&#45;&gt;strconv</title>
<path fill="none" stroke="black" d="M507.13,-354.5C553.05,-354.5 601.95,-354.5 634.47,-354.5"/>
<polygon fill="black" stroke="black" points="634.84,-358 644.84,-354.5 634.84,-351 634.84,-358"/>
</g>
<!-- strings -->
<g id="node15" class="node">
<title>strings</title>
<polygon fill="none" stroke="black" points="646,-281.5 646,-317.5 700,-317.5 700,-281.5 646,-281.5"/>
<text text-anchor="middle" x="673" y="-295.8" font-family="Times,serif" font-size="14.00">strings</text>
</g>
<!-- github.com/nikolaydubina/jsonl&#45;graph/dot&#45;&gt;strings -->
<g id="edge18" class="edge">
<title>github.com/nikolaydubina/jsonl&#45;graph/dot&#45;&gt;strings</title>
<path fill="none" stroke="black" d="M478.97,-336.49C532.55,-326.22 596.62,-313.95 635.8,-306.44"/>
<polygon fill="black" stroke="black" points="636.52,-309.86 645.69,-304.54 635.21,-302.99 636.52,-309.86"/>
</g>
<!-- text/template -->
<g id="node16" class="node">
<title>text/template</title>
<polygon fill="none" stroke="black" points="629,-149.5 629,-185.5 717,-185.5 717,-149.5 629,-149.5"/>
<text text-anchor="middle" x="673" y="-163.8" font-family="Times,serif" font-size="14.00">text/template</text>
</g>
<!-- github.com/nikolaydubina/jsonl&#45;graph/dot&#45;&gt;text/template -->
<g id="edge19" class="edge">
<title>github.com/nikolaydubina/jsonl&#45;graph/dot&#45;&gt;text/template</title>
<path fill="none" stroke="black" d="M495.48,-336.45C499.58,-333.82 503.45,-330.85 507,-327.5 549.68,-287.24 500.98,-241.45 543,-200.5 563.02,-180.99 592.92,-172.55 618.89,-169.07"/>
<polygon fill="black" stroke="black" points="619.45,-172.53 628.99,-167.93 618.67,-165.57 619.45,-172.53"/>
</g>
<!-- github.com/nikolaydubina/jsonl&#45;graph -->
<g id="node17" class="node">
<title>github.com/nikolaydubina/jsonl&#45;graph</title>
<polygon fill="none" stroke="black" points="0,-308.5 0,-344.5 225,-344.5 225,-308.5 0,-308.5"/>
<text text-anchor="middle" x="112.5" y="-322.8" font-family="Times,serif" font-size="14.00">github.com/nikolaydubina/jsonl&#45;graph</text>
</g>
<!-- github.com/nikolaydubina/jsonl&#45;graph&#45;&gt;github.com/nikolaydubina/jsonl&#45;graph/graph -->
<g id="edge22" class="edge">
<title>github.com/nikolaydubina/jsonl&#45;graph&#45;&gt;github.com/nikolaydubina/jsonl&#45;graph/graph</title>
<path fill="none" stroke="black" d="M141.96,-344.61C209.1,-386.54 383.74,-491.03 543,-547.5 549.3,-549.74 555.85,-551.81 562.5,-553.74"/>
<polygon fill="black" stroke="black" points="561.73,-557.16 572.3,-556.45 563.6,-550.41 561.73,-557.16"/>
</g>
<!-- github.com/nikolaydubina/jsonl&#45;graph&#45;&gt;io -->
<g id="edge23" class="edge">
<title>github.com/nikolaydubina/jsonl&#45;graph&#45;&gt;io</title>
<path fill="none" stroke="black" d="M126.38,-344.54C150.07,-376.73 203.44,-444.8 261,-488.5 372.77,-573.35 406.47,-598.07 543,-630.5 651.35,-656.24 784.6,-643.61 847.64,-635.1"/>
<polygon fill="black" stroke="black" points="848.44,-638.53 857.86,-633.68 847.47,-631.59 848.44,-638.53"/>
</g>
<!-- github.com/nikolaydubina/jsonl&#45;graph&#45;&gt;github.com/nikolaydubina/jsonl&#45;graph/dot -->
<g id="edge21" class="edge">
<title>github.com/nikolaydubina/jsonl&#45;graph&#45;&gt;github.com/nikolaydubina/jsonl&#45;graph/dot</title>
<path fill="none" stroke="black" d="M225.06,-338.09C233.49,-338.97 242.05,-339.86 250.59,-340.74"/>
<polygon fill="black" stroke="black" points="250.3,-344.23 260.6,-341.78 251.02,-337.27 250.3,-344.23"/>
</g>
<!-- flag -->
<g id="node18" class="node">
<title>flag</title>
<polygon fill="none" stroke="black" points="357,-281.5 357,-317.5 411,-317.5 411,-281.5 357,-281.5"/>
<text text-anchor="middle" x="384" y="-295.8" font-family="Times,serif" font-size="14.00">flag</text>
</g>
<!-- github.com/nikolaydubina/jsonl&#45;graph&#45;&gt;flag -->
<g id="edge20" class="edge">
<title>github.com/nikolaydubina/jsonl&#45;graph&#45;&gt;flag</title>
<path fill="none" stroke="black" d="M225.06,-315.32C268.64,-310.96 315.57,-306.26 346.84,-303.12"/>
<polygon fill="black" stroke="black" points="347.22,-306.6 356.82,-302.12 346.52,-299.64 347.22,-306.6"/>
</g>
<!-- log -->
<g id="node19" class="node">
<title>log</title>
<polygon fill="none" stroke="black" points="357,-226.5 357,-262.5 411,-262.5 411,-226.5 357,-226.5"/>
<text text-anchor="middle" x="384" y="-240.8" font-family="Times,serif" font-size="14.00">log</text>
</g>
<!-- github.com/nikolaydubina/jsonl&#45;graph&#45;&gt;log -->
<g id="edge24" class="edge">
<title>github.com/nikolaydubina/jsonl&#45;graph&#45;&gt;log</title>
<path fill="none" stroke="black" d="M157.17,-308.39C186.24,-296.79 225.49,-282 261,-271.5 289.4,-263.11 322.2,-255.99 346.63,-251.17"/>
<polygon fill="black" stroke="black" points="347.4,-254.59 356.55,-249.25 346.07,-247.71 347.4,-254.59"/>
</g>
<!-- os -->
<g id="node20" class="node">
<title>os</title>
<polygon fill="none" stroke="black" points="357,-171.5 357,-207.5 411,-207.5 411,-171.5 357,-171.5"/>
<text text-anchor="middle" x="384" y="-185.8" font-family="Times,serif" font-size="14.00">os</text>
</g>
<!-- github.com/nikolaydubina/jsonl&#45;graph&#45;&gt;os -->
<g id="edge25" class="edge">
<title>github.com/nikolaydubina/jsonl&#45;graph&#45;&gt;os</title>
<path fill="none" stroke="black" d="M132.28,-308.26C158.76,-283.61 209.59,-240.03 261,-216.5 288.27,-204.02 321.67,-197.14 346.62,-193.46"/>
<polygon fill="black" stroke="black" points="347.32,-196.9 356.75,-192.07 346.37,-189.96 347.32,-196.9"/>
</g>
</g>
</svg>
